HIERARCHY
ROOT hip
{
	OFFSET 0.000000 0.000000 0.000000 
	CHANNELS 6 Xposition Yposition Zposition Zrotation Xrotation Yrotation
	JOINT abdomen
	{
		OFFSET -0.000821 3.005590 0.001841 
		CHANNELS 3 Zrotation Xrotation Yrotation
		JOINT chest
		{
			OFFSET -0.000691 10.703000 -0.000315 
			CHANNELS 3 Zrotation Xrotation Yrotation
			JOINT neck
			{
				OFFSET 0.000000 12.027800 0.000574 
				CHANNELS 3 Zrotation Xrotation Yrotation
				JOINT head
				{
					OFFSET 0.000000 2.324290 0.001849 
					CHANNELS 3 Zrotation Xrotation Yrotation
					End Site
					{
						OFFSET 0.000000 8.337550 -0.000011 
					}
				}
			}
			JOINT lCollar
			{
				OFFSET 4.142280 8.713310 -1.748190 
				CHANNELS 3 Zrotation Xrotation Yrotation
				JOINT lShldr
				{
					OFFSET 3.198490 0.000000 0.000000 
					CHANNELS 3 Zrotation Xrotation Yrotation
					JOINT lForeArm
					{
						OFFSET 11.267400 0.131801 0.138382 
						CHANNELS 3 Zrotation Xrotation Yrotation
						JOINT lHand
						{
							OFFSET 10.433800 -0.078967 2.117880 
							CHANNELS 3 Zrotation Xrotation Yrotation
							End Site
							{
								OFFSET 5.536070 0.395145 1.598850 
							}
						}
					}
				}
			}
			JOINT rCollar
			{
				OFFSET -4.142280 8.713310 -1.748190 
				CHANNELS 3 Zrotation Xrotation Yrotation
				JOINT rShldr
				{
					OFFSET -3.198490 0.000000 0.000000 
					CHANNELS 3 Zrotation Xrotation Yrotation
					JOINT rForeArm
					{
						OFFSET -11.267400 0.131801 0.138378 
						CHANNELS 3 Zrotation Xrotation Yrotation
						JOINT rHand
						{
							OFFSET -10.433800 -0.078968 2.117910 
							CHANNELS 3 Zrotation Xrotation Yrotation
							End Site
							{
								OFFSET -5.536060 0.395145 1.598870 
							}
						}
					}
				}
			}
		}
	}
	JOINT lThigh
	{
		OFFSET 4.319220 0.000000 0.000000 
		CHANNELS 3 Zrotation Xrotation Yrotation
		JOINT lShin
		{
			OFFSET -1.084330 -20.014099 1.652440 
			CHANNELS 3 Zrotation Xrotation Yrotation
			JOINT lFoot
			{
				OFFSET -1.036480 -19.130800 -1.652470 
				CHANNELS 3 Zrotation Xrotation Yrotation
				JOINT lToe
				{
					OFFSET 0.062373 -5.141630 3.838810 
					CHANNELS 3 Zrotation Xrotation Yrotation
					End Site
					{
						OFFSET 0.000000 0.000000 2.702950 
					}
				}
			}
		}
	}
	JOINT rThigh
	{
		OFFSET -4.319220 0.000000 0.000000 
		CHANNELS 3 Zrotation Xrotation Yrotation
		JOINT rShin
		{
			OFFSET 1.084340 -20.014099 1.652400 
			CHANNELS 3 Zrotation Xrotation Yrotation
			JOINT rFoot
			{
				OFFSET 1.036480 -19.130800 -1.652410 
				CHANNELS 3 Zrotation Xrotation Yrotation
				JOINT rToe
				{
					OFFSET -0.188594 -3.213360 5.538430 
					CHANNELS 3 Zrotation Xrotation Yrotation
					End Site
					{
						OFFSET 0.000000 0.000000 2.702950 
					}
				}
			}
		}
	}
}
MOTION
Frames: 16
Frame Time: 0.033333
0.000000 42.398102 0.000000 0.000000 0.000000 0.000092 0.000000 -0.000000 -0.000000 0.000000 -0.000000 -0.000000 -0.000017 0.000000 0.000006 0.000017 -0.000000 -0.000001 0.000000 -0.000000 -0.000000 0.057319 1.350150 0.646580 -0.072570 -1.349410 -0.648202 -0.000000 -0.000000 -0.000000 0.000000 -0.000000 -0.000000 -0.057319 1.350150 -0.646580 0.072570 -1.349410 0.648017 0.000000 0.000000 0.000000 0.000000 -0.000000 -0.000092 0.000000 0.000000 -0.000000 0.000000 0.000000 -0.000000 0.000000 0.000000 -0.000000 0.000000 -0.000000 -0.000092 0.000000 0.000000 -0.000000 0.000000 -0.000000 0.000000 0.000000 -0.000000 -0.000003 
0.000000 42.398102 0.000000 0.000000 0.000000 0.000092 0.000000 -0.000000 -0.000000 0.000000 -0.000000 -0.000000 -0.000017 0.000000 0.000006 0.000017 -0.000000 -0.000001 0.000000 -0.000000 -0.000000 0.057319 1.350150 0.646580 -0.072570 -1.349410 -0.648202 -0.000000 -0.000000 -0.000000 0.000000 -0.000000 -0.000000 -0.057319 1.350150 -0.646580 0.072570 -1.349410 0.648017 0.000000 0.000000 0.000000 0.000000 -0.000000 -0.000092 0.000000 0.000000 -0.000000 0.000000 0.000000 -0.000000 0.000000 0.000000 -0.000000 0.000000 -0.000000 -0.000092 0.000000 0.000000 -0.000000 0.000000 -0.000000 0.000000 0.000000 -0.000000 -0.000003 
0.000000 42.398102 0.000000 0.000000 0.000000 0.000092 0.000000 -0.000000 -0.000000 0.000000 -0.000000 -0.000000 -0.000017 0.000000 0.000006 0.000017 -0.000000 -0.000001 0.000000 -0.000000 -0.000000 0.057319 1.350150 0.646580 -0.072570 -1.349410 -0.648202 -0.000000 -0.000000 -0.000000 0.000000 -0.000000 -0.000000 -0.057319 1.350150 -0.646580 0.072570 -1.349410 0.648017 0.000000 0.000000 0.000000 0.000000 -0.000000 -0.000092 0.000000 0.000000 -0.000000 0.000000 0.000000 -0.000000 0.000000 0.000000 -0.000000 0.000000 -0.000000 -0.000092 0.000000 0.000000 -0.000000 0.000000 -0.000000 0.000000 0.000000 -0.000000 -0.000003 
-2.274720 39.060200 -0.952959 0.798364 1.410330 37.166599 -0.141919 0.179040 -0.011802 -2.464120 -16.717800 -3.460740 -2.675280 2.813210 -24.078100 -0.363831 -16.663700 -0.268575 -2.000720 -0.069540 1.989760 -54.933102 -18.912201 25.182899 -1.634080 -0.902070 -16.789000 -17.714500 2.195620 -4.804160 1.990950 -0.069526 -1.999530 67.837196 3.798230 -33.385201 1.484100 -0.966510 15.172500 9.324060 44.682800 2.488060 6.765490 -8.547030 -11.842700 0.704228 35.400101 -2.206580 -0.000003 0.000000 0.000001 -9.721450 -29.211500 1.348590 -18.928101 -7.642960 -33.003799 -0.876049 38.740501 2.491340 0.000002 -0.000002 -0.000001 6.628680 -23.827200 4.349390 
0.000000 42.398102 0.000000 0.000000 0.000000 0.000092 0.000000 -0.000000 -0.000000 0.000000 -0.000000 -0.000000 -0.000017 0.000000 0.000006 0.000017 -0.000000 -0.000001 0.000000 -0.000000 -0.000000 0.057319 1.350150 0.646580 -0.072570 -1.349410 -0.648202 -0.000000 -0.000000 -0.000000 0.000000 -0.000000 -0.000000 -0.057319 1.350150 -0.646580 0.072570 -1.349410 0.648017 0.000000 0.000000 0.000000 0.000000 -0.000000 -0.000092 0.000000 0.000000 -0.000000 0.000000 0.000000 -0.000000 0.000000 0.000000 -0.000000 0.000000 -0.000000 -0.000092 0.000000 0.000000 -0.000000 0.000000 -0.000000 0.000000 0.000000 -0.000000 -0.000003 
-2.177640 41.935398 -4.937480 0.332433 2.871040 37.136299 0.000015 0.000001 0.053983 -1.783000 -11.361800 -3.330180 -0.980349 5.028570 -26.740200 -0.954918 -15.994000 -0.145956 -2.000720 -0.069542 1.989770 -62.341099 -7.700990 19.339899 -3.181560 0.112570 -35.174000 -17.651199 2.547000 -4.691210 1.990940 -0.069540 -1.999530 59.399200 6.250550 -13.208900 3.843520 0.829117 44.824402 9.890620 40.955898 2.764630 4.832780 -13.212400 -10.271100 0.523662 31.166000 -1.877780 -0.000001 -0.000000 -0.000000 -8.914190 -20.234100 1.876180 -15.314100 -8.508310 -31.845100 -0.184646 19.288401 1.086430 -0.000000 0.000000 0.000000 4.739110 -12.636900 1.651300 
-2.221200 40.478401 -2.928290 0.565356 2.140670 37.150299 -0.072773 0.071741 0.022668 -2.121960 -14.058000 -3.382980 -1.841260 3.930720 -25.400101 -0.699518 -16.301100 -0.217084 -2.000710 -0.069530 1.989760 -58.947300 -13.428400 22.126400 -2.448640 -0.456966 -25.985300 -17.682800 2.371300 -4.747630 1.990950 -0.069536 -1.999530 63.850101 5.457480 -23.353001 2.780650 -0.222179 30.007999 9.608560 42.819099 2.622150 5.797340 -10.972700 -11.072800 0.622832 33.600700 -2.062900 -0.000003 -0.000002 0.000003 -9.165410 -24.523100 1.689680 -16.893600 -8.135810 -32.248901 -0.442310 28.917101 1.715090 0.000002 -0.000001 0.000000 5.634310 -18.054100 2.657550 
-2.274720 39.060200 -0.952959 0.798364 1.410330 37.166599 -0.141919 0.179040 -0.011802 -2.464120 -16.717800 -3.460740 -2.675280 2.813210 -24.078100 -0.363831 -16.663700 -0.268575 -2.000720 -0.069540 1.989760 -54.933102 -18.912201 25.182899 -1.634080 -0.902070 -16.789000 -17.714500 2.195620 -4.804160 1.990950 -0.069526 -1.999530 67.837196 3.798230 -33.385201 1.484100 -0.966510 15.172500 9.324060 44.682800 2.488060 6.765490 -8.547030 -11.842700 0.704228 35.400101 -2.206580 -0.000003 0.000000 0.000001 -9.721450 -29.211500 1.348590 -18.928101 -7.642960 -33.003799 -0.876049 38.740501 2.491340 0.000002 -0.000002 -0.000001 6.628680 -23.827200 4.349390 
-2.323260 37.641998 1.039300 1.376580 0.391123 37.179401 -0.218200 0.215424 -0.039562 -2.822770 -19.449301 -3.541560 -4.316800 0.759565 -23.068399 -0.208360 -16.959299 -0.370054 -2.000740 -0.069540 1.989770 -51.750599 -21.678400 27.932600 -1.025900 -1.133490 -10.342300 -17.683701 2.339470 -4.785340 1.990950 -0.069531 -1.999510 69.479698 5.162560 -39.200802 0.936143 -1.161180 9.411810 9.730860 41.789001 2.762530 7.804990 -6.533030 -12.769900 0.860883 38.469002 -2.467180 -0.000000 0.000000 -0.000003 -9.758010 -33.094101 1.266770 -20.725599 -7.182890 -33.560299 -1.578140 48.458199 3.505750 -0.000002 -0.000003 -0.000001 7.557520 -29.401699 6.176550 
-2.351870 36.185101 3.099270 3.068880 -1.772240 37.233398 -0.312440 0.074342 -0.051264 -3.210370 -22.360901 -3.605770 -7.121840 -2.540610 -22.659000 -0.349652 -17.110201 -0.320490 -2.000740 -0.069536 1.989770 -50.436699 -21.051399 29.990299 -0.757167 -1.211680 -7.569960 -17.573099 2.895960 -4.669420 1.990960 -0.069531 -1.999510 69.014603 11.411400 -40.112499 1.517480 -0.952605 15.530700 11.075700 32.495998 3.694610 8.976360 -5.536590 -14.026100 1.264530 44.709999 -3.074380 -0.000001 -0.000002 0.000002 -8.435620 -34.940201 2.014020 -21.607401 -6.952410 -33.391399 -2.720550 57.767200 4.929310 0.000000 0.000000 0.000001 8.332670 -34.222599 7.486180 
-2.345600 34.650600 5.277730 5.112840 -4.221290 37.366299 -0.577608 -0.541104 -0.054618 -3.632820 -25.716101 -3.542640 -10.579700 -6.492860 -22.756701 -0.764842 -16.464701 -0.061019 -2.000740 -0.069542 1.989770 -50.041801 -18.130301 32.129700 -0.677072 -1.232300 -6.750830 -17.422400 3.670170 -4.503820 1.990960 -0.069528 -1.999520 67.918701 20.413099 -38.974899 2.610340 -0.346975 27.919500 13.013000 19.826799 5.221340 10.354900 -6.026680 -16.098900 2.653220 57.346802 -4.849710 0.000000 -0.000000 -0.000000 -5.101620 -33.967800 3.761300 -20.892401 -7.137790 -31.974501 -4.652670 66.359802 7.110050 -0.000000 0.000003 -0.000000 9.047870 -37.736599 7.647850 
-2.005490 32.999802 8.590340 5.536670 -4.684000 37.372501 -0.868157 -1.409120 -0.040378 -4.087840 -29.329000 -3.456070 -14.202100 -10.679300 -23.095200 -1.258680 -15.245500 0.374976 -2.000760 -0.069540 1.989780 -50.044102 -14.207600 34.403500 -0.669732 -1.234100 -6.675970 -17.253599 4.549590 -4.316940 1.990950 -0.069536 -1.999520 66.347099 30.452400 -35.881500 3.731900 0.690212 43.064098 15.409400 6.028990 7.293870 11.814800 -7.616090 -18.702200 8.472590 74.357101 -11.156100 0.000001 -0.000003 -0.000002 -1.032650 -30.806499 5.661760 -17.893900 -7.752070 -28.676901 -9.189330 75.276703 11.898600 0.000001 0.000002 0.000002 10.262200 -40.225399 6.172890 
-1.644690 29.882799 12.438800 3.970310 -3.296850 37.185799 -0.746331 -1.858220 0.038807 -4.605000 -32.630600 -3.658790 -17.445700 -14.723400 -23.287201 -1.495010 -14.552600 0.832736 -2.000760 -0.069552 1.989790 -50.085300 -11.215900 36.285099 -0.616783 -1.246990 -6.136120 -17.087601 5.421420 -4.136090 1.990950 -0.069542 -1.999510 63.258999 39.711102 -29.842400 4.512980 1.917690 57.468201 18.075001 -6.667210 9.732600 13.154000 -9.585050 -20.855600 95.753403 86.861504 -98.867798 -0.000000 -0.000000 -0.000003 2.458440 -26.512199 7.100260 -13.017000 -8.397280 -23.803200 -30.049200 84.322197 33.021400 0.000001 -0.000000 0.000003 13.355800 -42.188000 4.446560 
-1.831760 27.536900 15.717100 1.459310 -1.089940 36.987099 0.297898 -1.406590 0.258105 -5.216180 -35.350201 -4.278050 -20.153400 -18.693600 -22.986601 -1.346520 -14.991800 0.664184 -2.000760 -0.069542 1.989780 -49.910000 -9.750870 37.142601 -0.487520 -1.276240 -4.823390 -16.897200 6.459420 -3.927490 1.990960 -0.069536 -1.999500 56.390400 47.911400 -18.710501 4.982230 3.397500 72.840103 21.219900 -18.509701 12.707100 14.283000 -11.158700 -21.608900 157.977005 80.396896 -161.324997 -0.000002 -0.000000 0.000002 4.580810 -22.229601 8.246630 -7.252420 -8.687660 -18.268400 -137.932007 85.064796 141.136993 -0.000000 -0.000002 -0.000000 18.981199 -43.346600 4.389960 
-1.745790 25.635099 19.416401 -1.864170 2.854800 36.945499 1.749630 -0.529128 0.525948 -5.945770 -37.749100 -5.218620 -22.384701 -22.703501 -22.336500 -1.076960 -15.800300 0.050728 -2.000750 -0.069535 1.989760 -49.641102 -8.845140 37.435299 -0.346714 -1.304560 -3.400440 -16.698999 7.550620 -3.713120 1.990960 -0.069530 -1.999510 43.895401 54.516998 -0.688800 5.019430 5.145580 90.191299 25.429600 -30.293501 16.770700 15.207300 -11.599700 -20.766600 153.770996 82.083603 -157.070007 0.000001 0.000000 0.000000 5.018880 -18.009399 9.992330 -1.649790 -8.543730 -13.044800 -159.175995 79.763100 162.541000 -0.000001 0.000000 -0.000001 25.808500 -43.206200 6.191630 
-0.829722 24.296400 24.452101 -5.926130 9.429660 37.386600 2.517070 -0.000004 0.685811 -6.844940 -40.051899 -6.477450 -23.869801 -26.457001 -21.543400 -0.954913 -15.994000 -0.145966 -2.000740 -0.069543 1.989750 -49.332001 -7.968400 38.181999 -0.218844 -1.327170 -2.114040 -16.573400 8.151130 -3.598760 1.990970 -0.069538 -1.999520 27.759001 57.198299 22.177200 4.635950 6.583870 104.983002 30.756800 -40.668701 21.981701 15.993200 -11.448000 -18.837900 64.740601 86.651398 -67.807701 -0.000001 -0.000003 -0.000002 4.568070 -13.460700 12.286400 2.755360 -8.240050 -9.088050 -161.524002 78.225998 164.934006 0.000000 0.000001 0.000001 30.904600 -41.360802 8.000040 
